HIERARCHY
ROOT pelvis
{
	OFFSET 0.003123 -0.351407 0.012037
	CHANNELS 6 Xposition Yposition Zposition Zrotation Yrotation Xrotation 
	JOINT left_hip
	{
		OFFSET 0.058189 -0.092763 -0.026001
		CHANNELS 3 Zrotation Yrotation Xrotation
		JOINT left_knee
		{
			OFFSET 0.054695 -0.378753 -0.009396
			CHANNELS 3 Zrotation Yrotation Xrotation
			JOINT left_ankle
			{
				OFFSET -0.043453 -0.403059 -0.031876
				CHANNELS 3 Zrotation Yrotation Xrotation
				JOINT left_foot
				{
					OFFSET 0.047257 -0.057997 0.118216
					CHANNELS 3 Zrotation Yrotation Xrotation
					End Site
					{
						OFFSET 0.000000 0.000000 0.000000
					}
				}
			}
		}
	}
	JOINT right_hip
	{
		OFFSET -0.063267 -0.103908 -0.021250
		CHANNELS 3 Zrotation Yrotation Xrotation
		JOINT right_knee
		{
			OFFSET -0.044210 -0.362380 -0.016824
			CHANNELS 3 Zrotation Yrotation Xrotation
			JOINT right_ankle
			{
				OFFSET 0.015417 -0.410728 -0.020192
				CHANNELS 3 Zrotation Yrotation Xrotation
				JOINT right_foot
				{
					OFFSET -0.038812 -0.058328 0.119049
					CHANNELS 3 Zrotation Yrotation Xrotation
					End Site
					{
						OFFSET 0.000000 0.000000 0.000000
					}
				}
			}
		}
	}
	JOINT spine_1
	{
		OFFSET -0.002763 0.109891 -0.027618
		CHANNELS 3 Zrotation Yrotation Xrotation
		JOINT spine_2
		{
			OFFSET 0.009448 0.131853 -0.005940
			CHANNELS 3 Zrotation Yrotation Xrotation
			JOINT spine_3
			{
				OFFSET -0.011330 0.052235 0.028447
				CHANNELS 3 Zrotation Yrotation Xrotation
				JOINT neck
				{
					OFFSET -0.012164 0.165167 -0.031615
					CHANNELS 3 Zrotation Yrotation Xrotation
					JOINT head
					{
						OFFSET 0.024783 0.160452 0.020737
						CHANNELS 3 Zrotation Yrotation Xrotation
						End Site
						{
							OFFSET 0.000000 0.000000 0.000000
						}
					}
				}
				JOINT left_collar
				{
					OFFSET 0.046364 0.084944 -0.007220
					CHANNELS 3 Zrotation Yrotation Xrotation
					JOINT left_shoulder
					{
						OFFSET 0.119239 0.057728 -0.015461
						CHANNELS 3 Zrotation Yrotation Xrotation
						JOINT left_elbow
						{
							OFFSET 0.254123 -0.072151 -0.042459
							CHANNELS 3 Zrotation Yrotation Xrotation
							JOINT left_wrist
							{
								OFFSET 0.251987 0.023221 -0.002472
								CHANNELS 3 Zrotation Yrotation Xrotation
								JOINT left_index_1
								{
									OFFSET 0.101902 -0.008688 0.019351
									CHANNELS 3 Zrotation Yrotation Xrotation
									JOINT left_index_2
									{
										OFFSET 0.030149 -0.011154 0.001151
										CHANNELS 3 Zrotation Yrotation Xrotation
										JOINT left_index_3
										{
											OFFSET 0.006504 -0.021577 -0.002433
											CHANNELS 3 Zrotation Yrotation Xrotation
											End Site
											{
												OFFSET 0.000000 0.000000 0.000000
											}
										}
									}
								}
								JOINT left_middle_1
								{
									OFFSET 0.109398 -0.006328 -0.003981
									CHANNELS 3 Zrotation Yrotation Xrotation
									JOINT left_middle_2
									{
										OFFSET 0.026472 -0.015218 -0.004641
										CHANNELS 3 Zrotation Yrotation Xrotation
										JOINT left_middle_3
										{
											OFFSET 0.005022 -0.023347 -0.001911
											CHANNELS 3 Zrotation Yrotation Xrotation
											End Site
											{
												OFFSET 0.000000 0.000000 0.000000
											}
										}
									}
								}
								JOINT left_pinky_1
								{
									OFFSET 0.084047 -0.014539 -0.043750
									CHANNELS 3 Zrotation Yrotation Xrotation
									JOINT left_pinky_2
									{
										OFFSET 0.012124 -0.014448 -0.005375
										CHANNELS 3 Zrotation Yrotation Xrotation
										JOINT left_pinky_3
										{
											OFFSET 0.003798 -0.018853 0.000167
											CHANNELS 3 Zrotation Yrotation Xrotation
											End Site
											{
												OFFSET 0.000000 0.000000 0.000000
											}
										}
									}
								}
								JOINT left_ring_1
								{
									OFFSET 0.097444 -0.009268 -0.027345
									CHANNELS 3 Zrotation Yrotation Xrotation
									JOINT left_ring_2
									{
										OFFSET 0.023561 -0.016057 -0.001895
										CHANNELS 3 Zrotation Yrotation Xrotation
										JOINT left_ring_3
										{
											OFFSET 0.004257 -0.023548 0.000814
											CHANNELS 3 Zrotation Yrotation Xrotation
											End Site
											{
												OFFSET 0.000000 0.000000 0.000000
											}
										}
									}
								}
								JOINT left_thumb_1
								{
									OFFSET 0.040636 -0.017977 0.025611
									CHANNELS 3 Zrotation Yrotation Xrotation
									JOINT left_thumb_2
									{
										OFFSET 0.021637 -0.017639 0.011623
										CHANNELS 3 Zrotation Yrotation Xrotation
										JOINT left_thumb_3
										{
											OFFSET 0.024002 -0.008356 0.006548
											CHANNELS 3 Zrotation Yrotation Xrotation
											End Site
											{
												OFFSET 0.000000 0.000000 0.000000
											}
										}
									}
								}
							}
						}
					}
				}
				JOINT right_collar
				{
					OFFSET -0.047695 0.084339 -0.013400
					CHANNELS 3 Zrotation Yrotation Xrotation
					JOINT right_shoulder
					{
						OFFSET -0.102578 0.053524 -0.012669
						CHANNELS 3 Zrotation Yrotation Xrotation
						JOINT right_elbow
						{
							OFFSET -0.271150 -0.036492 -0.026467
							CHANNELS 3 Zrotation Yrotation Xrotation
							JOINT right_wrist
							{
								OFFSET -0.249267 -0.004533 -0.015325
								CHANNELS 3 Zrotation Yrotation Xrotation
								JOINT right_index_1
								{
									OFFSET -0.099881 -0.011783 0.019600
									CHANNELS 3 Zrotation Yrotation Xrotation
									JOINT right_index_2
									{
										OFFSET -0.030148 -0.011154 0.001151
										CHANNELS 3 Zrotation Yrotation Xrotation
										JOINT right_index_3
										{
											OFFSET -0.006505 -0.021577 -0.002432
											CHANNELS 3 Zrotation Yrotation Xrotation
											End Site
											{
												OFFSET 0.000000 0.000000 0.000000
											}
										}
									}
								}
								JOINT right_middle_1
								{
									OFFSET -0.107376 -0.009422 -0.003734
									CHANNELS 3 Zrotation Yrotation Xrotation
									JOINT right_middle_2
									{
										OFFSET -0.026472 -0.015218 -0.004641
										CHANNELS 3 Zrotation Yrotation Xrotation
										JOINT right_middle_3
										{
											OFFSET -0.005022 -0.023347 -0.001911
											CHANNELS 3 Zrotation Yrotation Xrotation
											End Site
											{
												OFFSET 0.000000 0.000000 0.000000
											}
										}
									}
								}
								JOINT right_pinky_1
								{
									OFFSET -0.082027 -0.017634 -0.043503
									CHANNELS 3 Zrotation Yrotation Xrotation
									JOINT right_pinky_2
									{
										OFFSET -0.012123 -0.014448 -0.005374
										CHANNELS 3 Zrotation Yrotation Xrotation
										JOINT right_pinky_3
										{
											OFFSET -0.003798 -0.018852 0.000167
											CHANNELS 3 Zrotation Yrotation Xrotation
											End Site
											{
												OFFSET 0.000000 0.000000 0.000000
											}
										}
									}
								}
								JOINT right_ring_1
								{
									OFFSET -0.095423 -0.012362 -0.027099
									CHANNELS 3 Zrotation Yrotation Xrotation
									JOINT right_ring_2
									{
										OFFSET -0.023561 -0.016057 -0.001895
										CHANNELS 3 Zrotation Yrotation Xrotation
										JOINT right_ring_3
										{
											OFFSET -0.004257 -0.023548 0.000816
											CHANNELS 3 Zrotation Yrotation Xrotation
											End Site
											{
												OFFSET 0.000000 0.000000 0.000000
											}
										}
									}
								}
								JOINT right_thumb_1
								{
									OFFSET -0.038613 -0.021074 0.025861
									CHANNELS 3 Zrotation Yrotation Xrotation
									JOINT right_thumb_2
									{
										OFFSET -0.021636 -0.017639 0.011623
										CHANNELS 3 Zrotation Yrotation Xrotation
										JOINT right_thumb_3
										{
											OFFSET -0.024004 -0.008353 0.006547
											CHANNELS 3 Zrotation Yrotation Xrotation
											End Site
											{
												OFFSET 0.000000 0.000000 0.000000
											}
										}
									}
								}
							}
						}
					}
				}
			}
		}
	}
}
MOTION
Frames: 4
Frame Time: 0.050000
-0.078178 0.969790 0.036224 -0.669252 6.920613 -14.438415 7.675591 0.231438 5.428370 4.848334 -1.853243 9.488155 -6.281477 -2.078846 10.541789 0.000000 0.000000 0.000000 0.150051 -2.382684 17.220323 -3.597600 0.016520 -3.039599 -4.523733 -13.422546 13.385317 0.000000 0.000000 0.000000 -5.065976 -1.094881 23.096438 -7.684615 -0.005839 -16.168375 17.162878 4.462634 24.229274 4.055971 1.481253 -11.366851 0.000000 0.000000 0.000000 -8.771225 -2.087130 -0.654977 -60.371485 5.921799 -13.783516 5.391383 -20.990920 1.070769 -5.633037 6.445692 5.503504 1.222948 2.049807 0.823932 -19.282947 6.473933 6.263930 0.000000 0.000000 0.000000 -7.541327 -10.153337 -6.752933 -35.987665 4.404473 -0.374148 0.000000 0.000000 0.000000 11.107766 -18.429510 -21.615516 -47.235816 -0.585968 -1.345636 0.000000 0.000000 0.000000 -6.175169 -5.664574 -4.037275 -47.789797 -4.998928 -6.951845 0.000000 0.000000 0.000000 5.990631 25.015656 23.555269 15.257796 2.748005 -3.419987 0.000000 0.000000 0.000000 7.703918 4.198773 2.484333 54.196652 2.948298 -4.164540 -6.553878 36.040619 -1.678189 7.036970 -10.282346 16.433349 8.343047 -0.270664 0.125994 8.763075 -3.404853 3.184323 0.000000 0.000000 0.000000 18.669695 9.408622 -7.896939 31.229235 -3.944441 -2.483751 0.000000 0.000000 0.000000 -14.261536 15.268910 -12.057933 37.144100 2.663821 -9.773220 0.000000 0.000000 0.000000 13.381090 6.320308 -4.790312 34.638328 -1.124194 -0.777466 0.000000 0.000000 0.000000 -5.835556 -32.291411 33.408286 -12.903476 15.269419 -11.005933 0.000000 0.000000 0.000000 
-0.067814 0.968500 0.040184 -0.990076 5.949332 -14.398284 8.345406 0.324787 7.395055 4.934319 -1.501725 7.292156 -7.632125 -5.406858 9.588594 0.000000 0.000000 0.000000 -0.243853 -2.305513 17.338284 -3.491982 0.011237 -3.000417 -4.086995 -12.768428 13.110895 0.000000 0.000000 0.000000 -4.542089 -1.118860 22.464388 -7.828203 -0.094762 -16.525850 17.034230 4.260326 24.581218 4.047149 1.317806 -10.494236 0.000000 0.000000 0.000000 -8.814489 -2.077881 -0.586894 -60.772125 6.906642 -14.025964 5.808796 -19.351681 0.948858 -5.780190 5.920149 4.654772 1.403324 1.938983 0.768326 -20.169934 3.923321 1.697005 0.000000 0.000000 0.000000 -6.916667 -9.962903 -6.591114 -36.533674 5.096936 0.960453 0.000000 0.000000 0.000000 8.110894 -16.083453 -18.710306 -45.140469 -3.840675 -6.244934 0.000000 0.000000 0.000000 -5.555347 -8.002442 -5.523391 -48.732436 -5.498269 -7.023935 0.000000 0.000000 0.000000 5.980440 24.158126 22.412690 13.983237 2.238386 -3.207442 0.000000 0.000000 0.000000 7.821627 2.815326 1.588077 53.455118 1.012132 -4.955383 -7.886372 33.874083 -1.887365 6.919556 -10.150060 15.624228 8.174407 -0.107584 0.086139 4.248422 -3.665363 6.211009 0.000000 0.000000 0.000000 18.608031 8.742212 -7.526518 29.367888 -4.033858 -1.551047 0.000000 0.000000 0.000000 -15.138191 16.431326 -14.259391 36.245126 0.112932 -3.531887 0.000000 0.000000 0.000000 15.499031 6.066499 -4.801960 30.428844 -1.369828 0.664080 0.000000 0.000000 0.000000 -7.252601 -32.022136 33.232698 -10.218775 18.329093 -10.917595 0.000000 0.000000 0.000000 
-0.056978 0.967211 0.042824 -1.282067 5.092966 -14.599415 8.779053 0.420264 9.268786 4.882639 -1.200659 5.443998 -8.499520 -7.930801 8.719177 0.000000 0.000000 0.000000 -0.631293 -2.243935 17.583369 -3.559213 0.020968 -2.852441 -3.660372 -12.143277 12.933478 0.000000 0.000000 0.000000 -4.504035 -1.104490 22.251453 -7.686839 -0.127181 -16.282387 16.676607 3.115856 24.467026 4.068797 1.271893 -10.373491 0.000000 0.000000 0.000000 -8.785536 -0.764132 -1.158352 -61.304556 7.282387 -13.983703 5.759422 -18.094962 0.940354 -5.467772 5.700448 5.332148 2.604710 2.989365 1.211411 -19.870672 3.626677 1.128266 0.000000 0.000000 0.000000 -5.730587 -6.227049 -4.416009 -35.630742 2.727866 -2.882022 0.000000 0.000000 0.000000 6.737871 -14.552720 -16.340872 -45.600670 -8.096807 -12.899206 0.000000 0.000000 0.000000 -6.976898 -6.528578 -4.593942 -51.147982 -0.401043 0.178885 0.000000 0.000000 0.000000 5.766219 25.834904 24.457008 15.299902 1.283892 -4.097294 0.000000 0.000000 0.000000 7.540924 2.650206 1.351879 52.686466 0.803885 -5.247719 -9.584953 30.759687 -2.097019 6.885769 -10.032265 12.624353 6.414534 -1.859989 0.771993 7.282383 -2.420026 2.350407 0.000000 0.000000 0.000000 17.909470 8.292820 -7.095825 30.511756 -2.872744 -3.106568 0.000000 0.000000 0.000000 -12.564514 13.032636 -10.920545 32.814068 3.770423 -10.494953 0.000000 0.000000 0.000000 16.000401 5.317577 -4.417401 28.811059 -0.520744 0.039664 0.000000 0.000000 0.000000 -7.627162 -33.346569 34.582701 -11.406915 19.280769 -11.894196 0.000000 0.000000 0.000000 
-0.043787 0.965921 0.045464 -1.674073 4.553532 -14.845261 8.925819 0.521599 11.098968 4.522721 -0.893517 3.727582 -8.354242 -9.130732 7.343897 0.000000 0.000000 0.000000 -1.085438 -2.176215 17.770000 -3.590765 0.037304 -2.612794 -3.345389 -11.829610 13.304449 0.000000 0.000000 0.000000 -4.088093 -1.146388 22.133652 -7.545020 -0.157819 -16.099873 16.320529 2.901168 24.205334 4.186763 1.250833 -10.348855 0.000000 0.000000 0.000000 -8.690258 -1.028667 -0.931064 -61.828296 7.114222 -13.969983 5.735592 -17.551304 0.930131 -5.490915 5.856571 5.958814 3.809242 5.897319 2.515982 -18.708085 3.193676 0.555217 0.000000 0.000000 0.000000 -5.771480 -6.460398 -4.557494 -33.915265 5.465574 1.851922 0.000000 0.000000 0.000000 5.984089 -15.150019 -17.170419 -48.005515 -4.967326 -7.809431 0.000000 0.000000 0.000000 -5.691928 -4.026074 -2.996805 -52.817081 -4.440238 -5.512628 0.000000 0.000000 0.000000 4.949498 25.211774 23.902670 17.088894 2.325190 -4.194078 0.000000 0.000000 0.000000 7.838311 1.306780 0.485489 51.641873 0.052543 -5.504562 -10.818912 28.462747 -2.140447 5.936868 -10.540527 10.988218 4.287315 -0.621030 0.308242 9.119780 -2.685058 2.487104 0.000000 0.000000 0.000000 17.402725 9.319851 -7.369664 29.816613 -1.285113 -5.219546 0.000000 0.000000 0.000000 -13.002452 14.267249 -13.629798 31.550784 1.269387 -4.046257 0.000000 0.000000 0.000000 14.371714 5.897917 -4.567141 29.332551 0.627743 -1.850072 0.000000 0.000000 0.000000 -6.748745 -31.767436 32.312193 -14.154829 16.220087 -11.860119 0.000000 0.000000 0.000000 
